<?xml version="1.0" standalone="no"?>
<!DOCTYPE svg PUBLIC "-//W3C//DTD SVG 20010904//EN"
 "http://www.w3.org/TR/2001/REC-SVG-20010904/DTD/svg10.dtd">
<svg version="1.0" xmlns="http://www.w3.org/2000/svg"
 width="1080.000000pt" height="1080.000000pt" viewBox="0 0 1080.000000 1080.000000"
 preserveAspectRatio="xMidYMid meet">

<g transform="translate(0.000000,1080.000000) scale(0.100000,-0.100000)"
fill="#000000" stroke="none">
<path d="M2698 10793 c1486 -2 3918 -2 5405 0 1486 1 270 2 -2703 2 -2973 0
-4189 -1 -2702 -2z"/>
<path d="M7724 9054 c-12 -3 -36 -21 -54 -40 -32 -32 -37 -34 -105 -34 -45 0
-78 -5 -91 -14 -11 -8 -38 -18 -60 -22 -44 -8 -94 -39 -94 -58 0 -20 -42 -53
-76 -60 -17 -4 -45 -20 -63 -36 -18 -17 -43 -33 -56 -36 -13 -3 -54 -37 -92
-75 -37 -38 -79 -72 -93 -76 -35 -8 -49 -21 -64 -58 -8 -18 -37 -54 -65 -80
-49 -46 -52 -51 -49 -94 2 -37 8 -48 29 -60 40 -22 94 -8 110 30 7 17 27 49
46 71 18 22 33 46 33 53 0 18 55 63 86 71 14 4 27 16 30 30 6 24 16 31 102 75
23 12 48 30 55 40 7 10 34 27 58 37 42 18 99 72 99 93 0 5 7 9 15 9 9 0 38 11
65 25 41 21 64 25 132 25 81 1 118 12 118 38 0 22 40 32 130 32 103 0 134 -12
163 -61 9 -16 31 -37 48 -47 24 -13 42 -40 76 -112 25 -52 56 -108 70 -125 44
-53 92 -131 135 -218 12 -26 31 -62 40 -80 10 -18 18 -49 18 -70 0 -36 21 -78
57 -115 10 -10 13 -91 13 -357 l0 -345 -31 -57 c-40 -73 -97 -148 -127 -164
-15 -8 -24 -25 -28 -50 -4 -25 -15 -44 -30 -54 -13 -8 -33 -33 -43 -54 -11
-21 -39 -58 -61 -82 -23 -24 -57 -76 -77 -116 -31 -64 -80 -122 -171 -206 -12
-11 -25 -32 -28 -46 -3 -14 -12 -42 -21 -61 -9 -19 -19 -78 -23 -130 -5 -55
-15 -108 -24 -125 -14 -27 -16 -105 -16 -712 0 -670 0 -683 20 -703 21 -21 47
-25 66 -12 33 21 34 50 34 714 1 567 3 666 15 682 11 14 15 46 15 106 0 66 4
94 20 123 11 20 20 48 20 62 0 17 7 28 23 34 32 13 102 82 122 122 10 18 30
50 45 69 15 19 35 52 43 72 8 20 24 41 35 47 11 6 25 26 31 44 6 18 26 47 44
64 17 17 45 56 61 87 16 30 37 58 47 61 11 4 30 27 43 53 13 26 43 83 66 127
l43 79 -1 366 c-1 201 -2 373 -2 382 0 10 -16 35 -35 56 -28 32 -35 48 -38 93
-3 43 -12 67 -40 108 -21 29 -37 62 -37 73 0 24 -44 103 -80 145 -16 17 -31
42 -35 55 -4 13 -22 39 -40 59 -18 20 -40 59 -49 87 -10 30 -31 64 -52 84 -20
18 -54 51 -77 74 -80 78 -106 88 -247 90 -69 1 -134 0 -146 -2z"/>
<path d="M3989 8018 c-52 -43 -72 -53 -117 -59 -65 -9 -90 -30 -98 -81 -4 -21
-11 -41 -15 -44 -13 -8 -11 -68 3 -82 7 -7 27 -12 46 -12 28 0 35 5 47 33 23
51 41 68 77 74 41 6 66 21 113 70 l37 38 400 3 c377 2 403 2 437 -16 27 -14
60 -20 130 -21 85 -2 99 -5 159 -37 58 -30 75 -34 142 -34 112 -1 200 -34 265
-102 27 -29 59 -60 70 -69 30 -25 55 -61 55 -79 0 -24 30 -46 70 -54 25 -4 51
-22 84 -55 27 -27 58 -52 70 -55 12 -3 36 -26 54 -51 17 -25 43 -50 57 -57 14
-6 49 -50 81 -99 30 -48 66 -95 80 -104 13 -8 24 -20 24 -26 0 -19 61 -140 93
-184 18 -25 47 -65 65 -90 l32 -45 0 -268 c0 -151 -4 -272 -9 -278 -17 -17
-61 -146 -61 -179 0 -18 -16 -66 -36 -106 -20 -40 -39 -96 -43 -125 -7 -52
-37 -108 -113 -210 -21 -28 -38 -60 -38 -71 0 -10 -16 -33 -35 -50 -23 -20
-35 -40 -35 -57 0 -17 -10 -33 -31 -48 -17 -13 -55 -60 -86 -105 -30 -46 -59
-83 -63 -83 -4 0 -35 -25 -69 -55 -38 -34 -71 -55 -85 -55 -15 0 -53 -25 -103
-68 -110 -95 -134 -110 -184 -118 -56 -8 -91 -30 -154 -93 -27 -28 -54 -51
-61 -51 -6 0 -29 -14 -50 -31 -44 -35 -217 -124 -261 -133 -15 -4 -54 -29 -86
-56 -55 -47 -62 -50 -115 -50 -68 -1 -91 -12 -130 -65 -40 -56 -102 -76 -268
-84 l-131 -6 -46 -38 c-41 -33 -51 -37 -104 -37 -36 0 -74 -8 -102 -20 -24
-11 -61 -20 -83 -20 -34 0 -50 -9 -106 -55 l-66 -55 -181 0 c-216 0 -225 3
-225 81 0 28 8 64 17 82 12 24 17 64 20 156 2 86 8 132 17 146 8 12 15 51 17
86 1 38 10 79 21 101 13 28 18 60 18 127 0 86 1 90 29 113 47 40 51 57 51 206
0 108 3 142 14 151 11 9 15 47 18 150 l3 138 38 42 37 41 0 148 c0 130 2 150
20 177 19 29 20 49 20 880 0 732 -2 853 -15 872 -31 44 -78 31 -95 -26 -5 -17
-9 -392 -10 -833 -1 -684 -3 -807 -15 -832 -11 -21 -15 -66 -15 -168 0 -147
-5 -169 -55 -237 -23 -32 -25 -42 -25 -153 0 -99 -3 -124 -20 -155 -17 -32
-20 -57 -20 -166 l0 -128 -35 -33 -35 -33 0 -92 c0 -67 -5 -105 -20 -143 -11
-29 -20 -69 -20 -88 0 -19 -9 -52 -20 -73 -17 -31 -20 -56 -20 -164 0 -106 -3
-129 -17 -146 -14 -15 -19 -41 -21 -116 -5 -135 2 -157 63 -192 l50 -28 229
-1 228 0 37 28 c33 27 73 47 194 101 33 15 68 21 116 21 64 0 72 2 111 35 l42
35 111 0 c77 0 121 5 139 14 15 8 51 21 81 30 62 18 104 48 117 82 8 21 16 24
57 24 59 0 122 28 173 76 34 32 78 54 245 123 12 5 41 24 65 42 25 19 63 46
85 60 22 15 60 45 85 67 28 26 58 43 82 47 36 6 159 78 166 97 2 5 25 20 50
34 80 43 153 92 191 127 20 19 50 40 66 48 16 8 40 30 52 49 13 19 32 46 44
60 11 14 25 36 32 50 7 13 31 37 53 52 29 19 44 38 53 67 7 23 23 48 40 60 20
15 30 32 35 63 4 26 22 62 45 93 63 82 101 158 108 216 3 30 21 84 40 121 20
41 33 82 33 106 0 27 12 58 41 105 l40 68 -3 314 -3 314 -26 28 c-14 15 -38
48 -53 73 -16 25 -36 54 -46 65 -10 11 -20 36 -24 56 -11 62 -50 130 -91 158
-23 16 -52 52 -74 90 -39 69 -186 225 -230 244 -31 14 -122 88 -160 131 -74
84 -200 205 -226 219 -73 37 -163 60 -250 65 -63 3 -97 10 -115 22 -46 32
-147 60 -218 60 -39 1 -77 7 -92 15 -21 12 -103 14 -467 15 l-442 0 -62 -52z"/>
<path d="M2393 7275 c-20 -22 -40 -35 -56 -35 -40 0 -51 -25 -53 -114 -1 -65
3 -86 18 -108 11 -16 25 -28 32 -28 7 0 30 -11 50 -25 36 -24 86 -34 86 -17 0
15 49 32 93 32 54 1 76 18 84 66 3 22 12 48 19 59 8 11 14 38 14 62 0 56 -50
113 -101 113 -19 1 -45 7 -59 15 -14 8 -41 14 -61 15 -28 0 -42 -7 -66 -35z"/>
<path d="M2194 5189 c-22 -11 -71 -114 -65 -138 1 -8 9 -20 17 -28 8 -9 14
-34 14 -63 0 -68 5 -76 65 -105 50 -23 64 -25 204 -25 147 0 151 1 166 24 15
22 13 28 -35 123 -28 55 -66 114 -84 132 -61 59 -229 106 -282 80z"/>
<path d="M7815 4259 c-11 -11 -32 -27 -46 -35 -15 -7 -53 -39 -85 -70 -57 -56
-58 -59 -62 -118 -3 -51 0 -66 20 -96 32 -46 61 -60 134 -60 88 0 103 15 111
108 3 40 10 75 16 79 5 3 46 5 89 4 84 -2 118 12 118 49 0 36 -27 55 -97 65
-66 10 -69 11 -89 50 -17 34 -26 40 -55 43 -26 2 -40 -3 -54 -19z m-45 -239
c0 -5 -4 -10 -10 -10 -5 0 -10 5 -10 10 0 6 5 10 10 10 6 0 10 -4 10 -10z"/>
</g>
</svg>
